<?xml version="1.0" encoding="utf-8"?>
<!-- Generator: Adobe Illustrator 25.4.1, SVG Export Plug-In . SVG Version: 6.00 Build 0)  -->
<svg version="1.1" id="Layer_1" xmlns="http://www.w3.org/2000/svg" xmlns:xlink="http://www.w3.org/1999/xlink" x="0px" y="0px"
	 viewBox="0 0 3378 848" style="enable-background:new 0 0 3378 848;" xml:space="preserve">
<style type="text/css">
	.st0{fill:#FFFFFF;}
</style>
<path class="st0" d="M657.2,456.3l26.5-124.6c0.6-3-1.3-6-4.3-6.7c-0.4-0.1-0.8-0.1-1.2-0.1H257.6l214.6-177c1-0.8,1.7-1.9,1.9-3.2
	l26.5-124.6c0.6-3-1.3-6-4.3-6.7c-0.4-0.1-0.8-0.1-1.2-0.1h-62.3c-1.3,0-2.6,0.5-3.6,1.3L51.5,326.2c-1,0.8-1.7,1.9-1.9,3.2
	L23.1,454c-0.6,3,1.3,6,4.3,6.7c0.4,0.1,0.8,0.1,1.2,0.1h623.1C654.3,460.8,656.6,458.9,657.2,456.3z"/>
<path class="st0" d="M455.2,186L323,295.1c-2.4,2-2.7,5.5-0.8,7.9c1.1,1.3,2.7,2,4.3,2h109c2.6,0,4.9-1.9,5.5-4.4l23.2-109
	c0.6-3-1.3-6-4.3-6.7C458.2,184.5,456.5,184.9,455.2,186z"/>
<path class="st0" d="M598.7,698.8H380.6c-2.6,0-4.9,1.9-5.5,4.4l-26.5,124.6c-0.6,3,1.3,6,4.3,6.7c0.4,0.1,0.8,0.1,1.2,0.1h218.1
	c2.6,0,4.9-1.9,5.5-4.4l26.5-124.6c0.6-3-1.3-6-4.3-6.7C599.5,698.8,599.1,698.8,598.7,698.8L598.7,698.8z"/>
<path class="st0" d="M2624.7,457c0.8,2.2,2.9,3.7,5.3,3.7h109c2.6,0,4.9-1.9,5.5-4.4l23.2-109c0.6-3-1.3-6-4.3-6.7
	c-1.7-0.4-3.4,0.1-4.7,1.2l-132.2,109C2624.5,452.3,2623.9,454.8,2624.7,457z"/>
<path class="st0" d="M2751.9,482l-226.7,186.9c-2.4,2-2.7,5.5-0.8,7.9c1.1,1.3,2.7,2,4.3,2h186.9c1.3,0,2.6-0.5,3.6-1.3L2946,490.6
	c2.4-2,2.7-5.5,0.8-7.9c-1.1-1.3-2.7-2-4.3-2h-186.9C2754.2,480.7,2752.9,481.2,2751.9,482z"/>
<path class="st0" d="M678.3,676.8c1.1,1.3,2.7,2.1,4.4,2.1h124.6c2.6,0,4.9-1.9,5.5-4.4l72.8-342.7c0.6-3-1.3-6-4.3-6.7
	c-0.4-0.1-0.8-0.1-1.2-0.1H755.5c-2.6,0-4.9,1.9-5.5,4.4l-72.8,342.7C676.8,673.7,677.2,675.4,678.3,676.8z"/>
<path class="st0" d="M1252,480.7h-186.9c-1.3,0-2.6,0.5-3.6,1.3L834.8,668.9c-2.4,2-2.7,5.5-0.8,7.9c1.1,1.3,2.7,2,4.3,2h186.9
	c1.3,0,2.6-0.5,3.6-1.3l226.7-186.9c2.4-2,2.7-5.5,0.8-7.9C1255.2,481.4,1253.7,480.7,1252,480.7z"/>
<path class="st0" d="M880.4,458.7c1.1,1.3,2.7,2.1,4.4,2.1h373.8c2.6,0,4.9-1.9,5.5-4.4l26.5-124.6c0.6-3-1.3-6-4.3-6.7
	c-0.4-0.1-0.8-0.1-1.2-0.1H911.3c-2.6,0-4.9,1.9-5.5,4.4L879.3,454C878.9,455.6,879.3,457.4,880.4,458.7z"/>
<path class="st0" d="M1423.7,698.8H676c-2.6,0-4.9,1.9-5.5,4.4l-26.5,124.6c-0.6,3,1.3,6,4.3,6.7c0.4,0.1,0.8,0.1,1.2,0.1h747.7
	c2.6,0,4.9-1.9,5.5-4.4l26.5-124.6c0.6-3-1.3-6-4.3-6.7C1424.5,698.8,1424.1,698.8,1423.7,698.8L1423.7,698.8z"/>
<path class="st0" d="M400.2,482.8c-1.1-1.3-2.7-2.1-4.4-2.1H271.2c-2.6,0-4.9,1.9-5.5,4.4l-72.8,342.7c-0.6,3,1.3,6,4.3,6.7
	c0.4,0.1,0.8,0.1,1.2,0.1H323c2.6,0,4.9-1.9,5.5-4.4l72.8-342.7C401.7,485.8,401.3,484.1,400.2,482.8z"/>
<path class="st0" d="M2739.6,328.6c-0.8-2.2-2.9-3.7-5.3-3.7h-186.9c-1.3,0-2.6,0.5-3.6,1.3l-302.2,249.2c-2.4,2-2.7,5.5-0.8,7.9
	c1.1,1.3,2.7,2,4.3,2h186.9c1.3,0,2.6-0.5,3.6-1.3l302.2-249.2C2739.7,333.4,2740.4,330.9,2739.6,328.6z"/>
<path class="st0" d="M3118.5,700.9c-1.1-1.3-2.7-2.1-4.4-2.1h-591.9c-2.6,0-4.9,1.9-5.5,4.4l-26.5,124.6c-0.6,3,1.3,6,4.3,6.7
	c0.4,0.1,0.8,0.1,1.2,0.1h591.9c2.6,0,4.9-1.9,5.5-4.4l26.5-124.6C3120,703.9,3119.6,702.2,3118.5,700.9z"/>
<path class="st0" d="M3353.7,327c-1.1-1.3-2.7-2.1-4.4-2.1h-529.6c-2.6,0-4.9,1.9-5.5,4.4L2787.8,454c-0.6,3,1.3,6,4.3,6.7
	c0.4,0.1,0.8,0.1,1.2,0.1h529.6c2.6,0,4.9-1.9,5.5-4.4l26.5-124.6C3355.2,330.1,3354.8,328.3,3353.7,327z"/>
<path class="st0" d="M3316.3,480.7h-124.6c-2.6,0-4.9,1.9-5.5,4.4l-72.8,342.7c-0.6,3,1.3,6,4.3,6.7c0.4,0.1,0.8,0.1,1.2,0.1h124.6
	c2.6,0,4.9-1.9,5.5-4.4l72.8-342.7c0.6-3-1.3-6-4.3-6.7C3317,480.7,3316.7,480.7,3316.3,480.7z"/>
<path class="st0" d="M2394.3,605.3h-155.8c-2.6,0-4.9,1.9-5.5,4.4l-18.9,89h-88.9c-2.6,0-4.9,1.9-5.5,4.4l-26.5,124.6
	c-0.6,3,1.3,6,4.3,6.7c0.4,0.1,0.8,0.1,1.2,0.1h218.1c2.6,0,4.9-1.9,5.5-4.4l39.3-185l36.3-29.9c2.4-2,2.7-5.5,0.8-7.9
	C2397.6,606.1,2396,605.3,2394.3,605.3z"/>
<path class="st0" d="M2177.9,327c-1.1-1.3-2.7-2.1-4.4-2.1h-124.6c-2.6,0-4.9,1.9-5.5,4.4l-105.9,498.5c-0.6,3,1.3,6,4.3,6.7
	c0.4,0.1,0.8,0.1,1.2,0.1h124.6c2.6,0,4.9-1.9,5.5-4.4L2179,331.7C2179.4,330.1,2179,328.3,2177.9,327z"/>
<path class="st0" d="M1755.5,186l-132.2,109c-2.4,2-2.7,5.5-0.8,7.9c1.1,1.3,2.7,2,4.3,2h109c2.6,0,4.9-1.9,5.5-4.4l23.2-109
	c0.6-3-1.3-6-4.3-6.7C1758.5,184.5,1756.8,184.9,1755.5,186z"/>
<path class="st0" d="M1982.8,327c-1.1-1.3-2.7-2.1-4.4-2.1h-420.5l214.6-177c1-0.8,1.7-1.9,1.9-3.2l26.5-124.6c0.6-3-1.3-6-4.3-6.7
	c-0.4-0.1-0.8-0.1-1.2-0.1h-62.3c-1.3,0-2.6,0.5-3.6,1.3l-377.8,311.5c-1,0.8-1.7,1.9-1.9,3.2L1323.4,454c-0.6,3,1.3,6,4.3,6.7
	c0.4,0.1,0.8,0.1,1.2,0.1H1952c2.6,0,4.9-1.9,5.5-4.4l26.5-124.6C1984.3,330.1,1983.9,328.3,1982.8,327z"/>
<path class="st0" d="M1899,698.8h-218.1c-2.6,0-4.9,1.9-5.5,4.4L1649,827.8c-0.6,3,1.3,6,4.3,6.7c0.4,0.1,0.8,0.1,1.2,0.1h218.1
	c2.6,0,4.9-1.9,5.5-4.4l26.5-124.6c0.6-3-1.3-6-4.3-6.7C1899.8,698.8,1899.4,698.8,1899,698.8z"/>
<path class="st0" d="M1700.5,482.8c-1.1-1.3-2.7-2.1-4.4-2.1h-124.6c-2.6,0-4.9,1.9-5.5,4.4l-72.8,342.7c-0.6,3,1.3,6,4.3,6.7
	c0.4,0.1,0.8,0.1,1.2,0.1h124.6c2.6,0,4.9-1.9,5.5-4.4l72.8-342.7C1702,485.8,1701.6,484.1,1700.5,482.8z"/>
</svg>
