<svg xmlns="http://www.w3.org/2000/svg" width="3378" height="848" viewBox="0 0 3378 848"><title>tetra</title><path d="M657.18067,456.31934,683.668,331.70605a5.60732,5.60732,0,0,0-5.48535-6.77343H257.64844L472.25391,147.9458a5.60654,5.60654,0,0,0,1.918-3.16016L500.65919,20.17236a5.60734,5.60734,0,0,0-5.48536-6.77343H432.86719a5.60422,5.60422,0,0,0-3.56738,1.28125L51.54786,326.21387a5.60655,5.60655,0,0,0-1.918,3.16015L23.14258,453.9873a5.60734,5.60734,0,0,0,5.48536,6.77344H651.69532A5.608,5.608,0,0,0,657.18067,456.31934Z"/><path d="M455.18653,186.02344,322.97364,295.06055a5.60733,5.60733,0,0,0,3.56738,9.93359H435.57715a5.608,5.608,0,0,0,5.48536-4.44141l23.17675-109.03711a5.60766,5.60766,0,0,0-9.05273-5.49218Z"/><path d="M598.72071,698.773H380.64649a5.608,5.608,0,0,0-5.48535,4.44141L348.67383,827.82764a5.60862,5.60862,0,0,0,5.48536,6.77343H572.2334a5.608,5.608,0,0,0,5.48536-4.4414l26.4873-124.61328a5.60733,5.60733,0,0,0-5.48535-6.77344Z"/><path d="M2624.65626,457.04883a5.6069,5.6069,0,0,0,5.27734,3.71191h109.03711a5.608,5.608,0,0,0,5.48535-4.4414l23.17676-109.03663a5.60766,5.60766,0,0,0-9.05274-5.49218L2626.36622,450.82715A5.60648,5.60648,0,0,0,2624.65626,457.04883Z"/><path d="M2751.93458,481.98047,2525.28321,668.90088a5.60733,5.60733,0,0,0,3.56738,9.93359h186.9209a5.60418,5.60418,0,0,0,3.56738-1.28125l226.65137-186.92041a5.60733,5.60733,0,0,0-3.56738-9.93359H2755.502A5.60423,5.60423,0,0,0,2751.93458,481.98047Z"/><path d="M678.291,676.75586a5.6098,5.6098,0,0,0,4.3584,2.07861H807.2627a5.608,5.608,0,0,0,5.48535-4.4414l72.83985-342.687a5.60734,5.60734,0,0,0-5.48535-6.77343H755.48926a5.608,5.608,0,0,0-5.48535,4.4414L677.16407,672.061A5.60869,5.60869,0,0,0,678.291,676.75586Z"/><path d="M1251.98731,480.69922H1065.06739a5.60423,5.60423,0,0,0-3.56738,1.28125L834.84864,668.90088a5.60733,5.60733,0,0,0,3.56738,9.93359h186.91992a5.60422,5.60422,0,0,0,3.56739-1.28125l226.65136-186.92041a5.60733,5.60733,0,0,0-3.56738-9.93359Z"/><path d="M880.41016,458.68213a5.6098,5.6098,0,0,0,4.3584,2.07861h373.84082a5.608,5.608,0,0,0,5.48535-4.4414L1290.582,331.70605a5.60734,5.60734,0,0,0-5.48535-6.77343H911.25587a5.608,5.608,0,0,0-5.48536,4.4414L879.28321,453.9873A5.6087,5.6087,0,0,0,880.41016,458.68213Z"/><path d="M1423.708,698.773H676.02735a5.608,5.608,0,0,0-5.48535,4.44141L644.05469,827.82764a5.60862,5.60862,0,0,0,5.48536,6.77343h747.68066a5.608,5.608,0,0,0,5.48535-4.4414l26.48731-124.61328a5.60862,5.60862,0,0,0-5.48536-6.77344Z"/><path d="M400.20411,482.77783a5.60641,5.60641,0,0,0-4.35742-2.07861H271.2334a5.608,5.608,0,0,0-5.48535,4.4414l-72.84082,342.687a5.60734,5.60734,0,0,0,5.48535,6.77343H323.00587a5.608,5.608,0,0,0,5.48535-4.4414l72.84082-342.687A5.6059,5.6059,0,0,0,400.20411,482.77783Z"/><path d="M2739.582,328.64453a5.60692,5.60692,0,0,0-5.27735-3.71191H2547.38477a5.6042,5.6042,0,0,0-3.56738,1.28125L2241.61524,575.44043a5.60733,5.60733,0,0,0,3.56738,9.93359h186.9209a5.60418,5.60418,0,0,0,3.56738-1.28125l302.20118-249.22656A5.6065,5.6065,0,0,0,2739.582,328.64453Z"/><path d="M3118.501,700.85156a5.60638,5.60638,0,0,0-4.35742-2.07861H2522.2295a5.608,5.608,0,0,0-5.48535,4.44141l-26.48731,124.61328a5.60734,5.60734,0,0,0,5.48535,6.77343h591.91309a5.608,5.608,0,0,0,5.48535-4.4414l26.48828-124.61328A5.6059,5.6059,0,0,0,3118.501,700.85156Z"/><path d="M3353.7295,327.01123a5.6064,5.6064,0,0,0-4.35742-2.07861H2819.76465a5.608,5.608,0,0,0-5.48535,4.4414L2787.792,453.9873a5.60733,5.60733,0,0,0,5.48535,6.77344h529.60742a5.608,5.608,0,0,0,5.48535-4.4414l26.48731-124.61329A5.60588,5.60588,0,0,0,3353.7295,327.01123Z"/><path d="M3316.2627,480.69922H3191.64942a5.608,5.608,0,0,0-5.48535,4.4414l-72.84082,342.687a5.60732,5.60732,0,0,0,5.48535,6.77343h124.61426a5.608,5.608,0,0,0,5.48535-4.4414l72.83984-342.687a5.60862,5.60862,0,0,0-5.48535-6.77344Z"/><path d="M2394.32813,605.313H2238.56055a5.608,5.608,0,0,0-5.48535,4.4414L2214.1543,698.773h-88.91894a5.608,5.608,0,0,0-5.48535,4.44141L2093.2627,827.82764a5.60732,5.60732,0,0,0,5.48535,6.77343H2316.8213a5.608,5.608,0,0,0,5.48535-4.4414l39.32422-185.00537,36.26464-29.90772a5.60733,5.60733,0,0,0-3.56738-9.93359Z"/><path d="M2177.90137,327.01123a5.60638,5.60638,0,0,0-4.35742-2.07861H2048.93067a5.608,5.608,0,0,0-5.48535,4.4414L1937.4961,827.82764a5.60862,5.60862,0,0,0,5.48535,6.77343h124.61328a5.608,5.608,0,0,0,5.48535-4.4414L2179.0293,331.70605A5.60585,5.60585,0,0,0,2177.90137,327.01123Z"/><path d="M1755.47462,186.02344l-132.2129,109.03711a5.60733,5.60733,0,0,0,3.56739,9.93359h109.03613a5.608,5.608,0,0,0,5.48535-4.44141l23.17676-109.03711a5.60766,5.60766,0,0,0-9.05273-5.49218Z"/><path d="M1982.82911,327.01123a5.6098,5.6098,0,0,0-4.3584-2.07861H1557.93653L1772.542,147.9458a5.6066,5.6066,0,0,0,1.918-3.16016l26.4873-124.61328a5.60732,5.60732,0,0,0-5.48535-6.77343h-62.30664a5.60418,5.60418,0,0,0-3.56738,1.28125l-377.752,311.53369a5.60666,5.60666,0,0,0-1.918,3.16015l-26.4873,124.61328a5.60733,5.60733,0,0,0,5.48535,6.77344H1951.9834a5.608,5.608,0,0,0,5.48536-4.4414l26.4873-124.61329A5.60869,5.60869,0,0,0,1982.82911,327.01123Z"/><path d="M1899.0088,698.773H1680.93458a5.60805,5.60805,0,0,0-5.48536,4.44141l-26.4873,124.61328a5.60732,5.60732,0,0,0,5.48535,6.77343h218.07422a5.608,5.608,0,0,0,5.48535-4.4414l26.48731-124.61328a5.60862,5.60862,0,0,0-5.48535-6.77344Z"/><path d="M1700.49317,482.77783a5.6098,5.6098,0,0,0-4.3584-2.07861H1571.52051a5.608,5.608,0,0,0-5.48535,4.4414l-72.83984,342.687a5.60862,5.60862,0,0,0,5.48535,6.77343H1623.294a5.608,5.608,0,0,0,5.48535-4.4414l72.84082-342.687A5.60867,5.60867,0,0,0,1700.49317,482.77783Z"/></svg>